<svg xmlns="http://www.w3.org/2000/svg" viewBox="0 0 64 64">
  <title>Vector</title>
  <g id="Vector">
    <rect y="3" width="64" height="48" rx="3" fill="#00bebd" />
    <polygon points="39.81 61.05 23.81 60.95 24.88 50.95 38.88 51.05 39.81 61.05" fill="#00aaa8" />
    <path d="M46.81,62.1l-30-.2a1,1,0,0,1,0-2l30,.2A1,1,0,0,1,46.81,62.1Z" fill="#50d9d7" />
    <path d="M3,5H61a1,1,0,0,1,1,1V9a0,0,0,0,1,0,0H2A0,0,0,0,1,2,9V6A1,1,0,0,1,3,5Z" fill="#c8c8c8" />
    <rect x="2" y="9" width="60" height="36" fill="#fff" />
    <rect x="2" y="9" width="10" height="26" fill="#f3f3f3" />
    <rect x="50" y="9" width="12" height="36" fill="#f3f3f3" />
    <rect x="4" y="11" width="3" height="3" fill="#c8c8c8" />
    <rect x="7" y="14" width="3" height="3" fill="#c8c8c8" />
    <rect x="7" y="11" width="3" height="3" fill="#d9d9d9" />
    <rect x="4" y="14" width="3" height="3" fill="#d9d9d9" />
    <rect x="4" y="17" width="3" height="3" fill="#c8c8c8" />
    <rect x="7" y="20" width="3" height="3" fill="#c8c8c8" />
    <rect x="7" y="17" width="3" height="3" fill="#d9d9d9" />
    <rect x="4" y="20" width="3" height="3" fill="#d9d9d9" />
    <rect x="6" y="27" width="4" height="4" fill="#ea9807" />
    <rect x="4" y="25" width="4" height="4" fill="#ffac00" />
    <rect x="50" y="30" width="12" height="4" fill="#d9d9d9" />
    <rect x="50" y="32" width="5" height="2" fill="#f3f3f3" />
    <rect x="50" y="9" width="12" height="4" fill="#d9d9d9" />
    <rect x="50" y="11" width="5" height="2" fill="#f3f3f3" />
    <rect x="54" y="17" width="4" height="4" fill="#ea9807" />
    <rect x="52" y="15" width="4" height="4" fill="#ffac00" />
    <rect x="52" y="23" width="8" height="2" fill="#50d9d7" />
    <rect x="52" y="36" width="8" height="2" fill="#50d9d7" />
    <rect x="52" y="40" width="8" height="2" fill="#50d9d7" />
    <rect x="14" y="11" width="10" height="2" fill="#f3f3f3" />
    <rect x="14" y="15" width="6" height="2" fill="#f3f3f3" />
    <polygon points="45 24 32 41 19 24 23 18 41 18 45 24" fill="#ffac00" />
    <polygon points="45 24 19 24 23 18 41 18 45 24" fill="#ea9807" />
    <polygon points="32 18 26 24 38 24 32 18" fill="#ffac00" />
    <polygon points="26 24 32 41 38 24 26 24" fill="#ea9807" />
    <rect x="18" y="23" width="2" height="2" fill="#50d9d7" />
    <rect x="44" y="23" width="2" height="2" fill="#50d9d7" />
    <rect x="31" y="40" width="2" height="2" fill="#50d9d7" />
    <rect x="22" y="17" width="2" height="2" fill="#50d9d7" />
    <rect x="40" y="17" width="2" height="2" fill="#50d9d7" />
    <polygon points="41.05 35 46 37.12 43.88 37.83 43.17 39.95 41.05 35" fill="#00aaa8" />
    <rect x="15" y="35" width="8" height="6" fill="#ffac00" />
  </g>
</svg>
