<?xml version="1.0" encoding="utf-8"?>
<!-- Generator: Adobe Illustrator 21.0.0, SVG Export Plug-In . SVG Version: 6.00 Build 0)  -->
<svg version="1.1" id="Layer_1" xmlns="http://www.w3.org/2000/svg" xmlns:xlink="http://www.w3.org/1999/xlink" x="0px" y="0px"
	 viewBox="0 0 64 64" style="enable-background:new 0 0 64 64;" xml:space="preserve">
<style type="text/css">
	.st0{fill:#455A64;stroke:#37474F;stroke-linecap:round;stroke-linejoin:round;stroke-miterlimit:10;}
	.st1{fill:#78909C;stroke:#37474F;stroke-linecap:round;stroke-linejoin:round;stroke-miterlimit:10;}
	.st2{fill:#ECEFF1;stroke:#37474F;stroke-linecap:round;stroke-linejoin:round;stroke-miterlimit:10;}
	.st3{fill:none;stroke:#FFFFFF;stroke-linecap:round;stroke-linejoin:round;stroke-miterlimit:10;}
	.st4{fill:#FFCA28;stroke:#37474F;stroke-linecap:round;stroke-linejoin:round;stroke-miterlimit:10;}
	.st5{fill:none;stroke:#37474F;stroke-linecap:round;stroke-linejoin:round;stroke-miterlimit:10;}
	.st6{fill:#B0BEC5;}
	.st7{fill:#37474F;}
	.st8{fill:#455A64;}
	.st9{fill:#9CCC65;stroke:#37474F;stroke-linecap:round;stroke-linejoin:round;stroke-miterlimit:10;}
	.st10{fill:none;stroke:#C5E1A5;stroke-linecap:round;stroke-linejoin:round;stroke-miterlimit:10;}
	.st11{fill:#26C6DA;stroke:#37474F;stroke-linecap:round;stroke-linejoin:round;stroke-miterlimit:10;}
	.st12{fill:#EF5350;stroke:#37474F;stroke-linecap:round;stroke-linejoin:round;stroke-miterlimit:10;}
	.st13{fill:#B0BEC5;stroke:#37474F;stroke-linecap:round;stroke-linejoin:round;stroke-miterlimit:10;}
	.st14{fill:none;stroke:#EF9A9A;stroke-linecap:round;stroke-linejoin:round;stroke-miterlimit:10;}
	.st15{fill:none;stroke:#FFE082;stroke-linecap:round;stroke-linejoin:round;stroke-miterlimit:10;}
	.st16{fill:#D32F2F;stroke:#37474F;stroke-linecap:round;stroke-linejoin:round;stroke-miterlimit:10;}
	.st17{fill:#0097A7;stroke:#37474F;stroke-linecap:round;stroke-linejoin:round;stroke-miterlimit:10;}
	.st18{fill:#689F38;stroke:#37474F;stroke-linecap:round;stroke-linejoin:round;stroke-miterlimit:10;}
	.st19{fill:#FFA000;stroke:#37474F;stroke-linecap:round;stroke-linejoin:round;stroke-miterlimit:10;}
	.st20{fill:#FFA000;}
	.st21{fill:#FF6F00;}
	.st22{fill:#D32F2F;}
	.st23{fill:#0097A7;}
	.st24{fill:none;stroke:#80DEEA;stroke-linecap:round;stroke-linejoin:round;stroke-miterlimit:10;}
	.st25{fill:#689F38;}
	.st26{fill:none;stroke:#B0BEC5;stroke-linecap:round;stroke-linejoin:round;stroke-miterlimit:10;}
	.st27{fill:#78909C;stroke:#37474F;stroke-miterlimit:10;}
	.st28{fill:#78909C;}
	.st29{fill:#B71C1C;}
	.st30{fill:#F57F17;}
	.st31{fill:#006064;}
	.st32{fill:#26A69A;stroke:#37474F;stroke-linecap:round;stroke-linejoin:round;stroke-miterlimit:10;}
</style>
<g>
	<path class="st17" d="M54,62.6H10c-2.8,0-5-2.2-5-5v-29h54v29C59,60.4,56.8,62.6,54,62.6z"/>
	<path class="st2" d="M54,58.6H10c-2.8,0-5-2.2-5-5v-31h54v31C59,56.4,56.8,58.6,54,58.6z"/>
	<path class="st2" d="M5,22.6L30.4,1.9c0.9-0.7,2.2-0.7,3.2,0L59,22.6H5z"/>
	<g>
		<polygon class="st6" points="54,19.2 36.9,5.3 36.1,4.6 27.9,4.6 27.1,5.3 10,19.2 10,22.1 54,22.1 		"/>
		<polygon class="st6" points="10,23.1 10,26.6 32,47 54,26.6 54,23.1 		"/>
	</g>
	<path class="st4" d="M47,58.6H17c-2.8,0-5-2.2-5-5v-42c0-2.8,2.2-5,5-5h30c2.8,0,5,2.2,5,5v42C52,56.4,49.8,58.6,47,58.6z"/>
	<path class="st15" d="M14,15.6v-4c0-1.7,1.3-3,3-3h4"/>
	<line class="st5" x1="18" y1="16.6" x2="46" y2="16.6"/>
	<line class="st5" x1="18" y1="22.1" x2="46" y2="22.1"/>
	<line class="st5" x1="18" y1="29.1" x2="32" y2="29.1"/>
	<path class="st2" d="M32,47.6l-27-25v31c0,2.8,2.2,5,5,5h44c2.8,0,5-2.2,5-5v-31L32,47.6z"/>
	<path class="st11" d="M38.3,41.8l-4.6,4.3c-1,0.9-2.4,0.9-3.4,0l-4.6-4.3L6.6,57.3c0.9,0.8,2.1,1.3,3.4,1.3h44
		c1.3,0,2.5-0.5,3.4-1.3L38.3,41.8z"/>
</g>
</svg>
